<svg xmlns="http://www.w3.org/2000/svg" width="79.755" height="79.768" viewBox="210 409.154 79.755 79.768"><g data-name="CompositeLayer"><g data-name="Group 3175"><path d="m257.605 465.694.757-.612 2.569 3.177-.757.612-2.569-3.177z" fill="#82878d" fill-rule="evenodd" data-name="Rectangle 5746"/><path d="m252.829 469.103.817-.532 2.228 3.425-.817.532-2.228-3.425z" fill="#82878d" fill-rule="evenodd" data-name="Rectangle 5747"/><path d="m247.726 471.989.868-.443 1.856 3.64-.868.443-1.856-3.64z" fill="#82878d" fill-rule="evenodd" data-name="Rectangle 5748"/><path d="m242.348 474.328.91-.35 1.466 3.814-.91.35-1.466-3.814z" fill="#82878d" fill-rule="evenodd" data-name="Rectangle 5749"/></g><g data-name="Group 3174"><path d="m265.956 457.488.613-.757 3.175 2.57-.613.758-3.175-2.571z" fill="#82878d" fill-rule="evenodd" data-name="Rectangle 5742"/><path d="m269.444 452.773.53-.817 3.427 2.227-.53.817-3.427-2.227z" fill="#82878d" fill-rule="evenodd" data-name="Rectangle 5743"/><path d="m272.42 447.72.442-.867 3.64 1.856-.442.868-3.64-1.856z" fill="#82878d" fill-rule="evenodd" data-name="Rectangle 5744"/><path d="m274.851 442.385.35-.91 3.814 1.467-.35.909-3.814-1.466z" fill="#82878d" fill-rule="evenodd" data-name="Rectangle 5745"/></g><g data-name="Group 3176"><path d="m277.888 431.638.161-.96 4.029.678-.162.96-4.028-.678z" fill="#82878d" fill-rule="evenodd" data-name="Rectangle 5750"/><path d="m278.607 425.818.061-.972 4.079.254-.06.973-4.08-.255z" fill="#82878d" fill-rule="evenodd" data-name="Rectangle 5751"/><path d="m278.674 418.983 4.082-.173.042.972-4.082.173-.042-.972z" fill="#82878d" fill-rule="evenodd" data-name="Rectangle 5752"/><path d="m278.068 413.15 4.042-.598.142.964-4.042.597-.142-.963z" fill="#82878d" fill-rule="evenodd" data-name="Rectangle 5753"/></g><g data-name="Group 3177"><path d="m212.27 481.045.676-4.03.96.16-.676 4.03-.96-.16z" fill="#82878d" fill-rule="evenodd" data-name="Rectangle 5754"/><path d="m218.514 481.813.253-4.078.972.06-.253 4.079-.972-.06z" fill="#82878d" fill-rule="evenodd" data-name="Rectangle 5755"/><path d="m224.63 477.843.972-.042.174 4.082-.972.042-.175-4.082z" fill="#82878d" fill-rule="evenodd" data-name="Rectangle 5756"/><path d="m230.471 477.338.964-.143.599 4.041-.964.143-.599-4.041z" fill="#82878d" fill-rule="evenodd" data-name="Rectangle 5757"/></g><path d="m276.809 436.855.25-.941 3.853 1.027-.251.94-3.852-1.026z" fill="#82878d" fill-rule="evenodd" data-name="Rectangle 5741"/><g data-name="Group 3261"><path d="m261.974 461.79.689-.69 2.91 2.91-.689.69-2.91-2.91z" fill="#82878d" fill-rule="evenodd" data-name="Rectangle 5740"/><path d="m236.796 476.13.94-.252 1.019 3.91-.94.25-1.02-3.909Z" fill="#82878d" fill-rule="evenodd" data-name="Path 2337"/><path d="m276.809 436.855.25-.941 3.853 1.027-.251.94-3.852-1.026z" fill="#82878d" fill-rule="evenodd" data-name="Rectangle 5741"/><g data-name="Group 3174"><path d="m265.956 457.488.613-.757 3.175 2.57-.613.758-3.175-2.571z" fill="#82878d" fill-rule="evenodd" data-name="Rectangle 5742"/><path d="m269.444 452.773.53-.817 3.427 2.227-.53.817-3.427-2.227z" fill="#82878d" fill-rule="evenodd" data-name="Rectangle 5743"/><path d="m272.42 447.72.442-.867 3.64 1.856-.442.868-3.64-1.856z" fill="#82878d" fill-rule="evenodd" data-name="Rectangle 5744"/><path d="m274.851 442.385.35-.91 3.814 1.467-.35.909-3.814-1.466z" fill="#82878d" fill-rule="evenodd" data-name="Rectangle 5745"/></g><g data-name="Group 3175"><path d="m257.605 465.694.757-.612 2.569 3.177-.757.612-2.569-3.177z" fill="#82878d" fill-rule="evenodd" data-name="Rectangle 5746"/><path d="m252.829 469.103.817-.532 2.228 3.425-.817.532-2.228-3.425z" fill="#82878d" fill-rule="evenodd" data-name="Rectangle 5747"/><path d="m247.726 471.989.868-.443 1.856 3.64-.868.443-1.856-3.64z" fill="#82878d" fill-rule="evenodd" data-name="Rectangle 5748"/><path d="m242.348 474.328.91-.35 1.466 3.814-.91.35-1.466-3.814z" fill="#82878d" fill-rule="evenodd" data-name="Rectangle 5749"/></g><g data-name="Group 3176"><path d="m277.888 431.638.161-.96 4.029.678-.162.96-4.028-.678z" fill="#82878d" fill-rule="evenodd" data-name="Rectangle 5750"/><path d="m278.607 425.818.061-.972 4.079.254-.06.973-4.08-.255z" fill="#82878d" fill-rule="evenodd" data-name="Rectangle 5751"/><path d="m278.674 418.983 4.082-.173.042.972-4.082.173-.042-.972z" fill="#82878d" fill-rule="evenodd" data-name="Rectangle 5752"/><path d="m278.068 413.15 4.042-.598.142.964-4.042.597-.142-.963z" fill="#82878d" fill-rule="evenodd" data-name="Rectangle 5753"/></g><g data-name="Group 3177"><path d="m212.27 481.045.676-4.03.96.16-.676 4.03-.96-.16z" fill="#82878d" fill-rule="evenodd" data-name="Rectangle 5754"/><path d="m218.514 481.813.253-4.078.972.06-.253 4.079-.972-.06z" fill="#82878d" fill-rule="evenodd" data-name="Rectangle 5755"/><path d="m224.63 477.843.972-.042.174 4.082-.972.042-.175-4.082z" fill="#82878d" fill-rule="evenodd" data-name="Rectangle 5756"/><path d="m230.471 477.338.964-.143.599 4.041-.964.143-.599-4.041z" fill="#82878d" fill-rule="evenodd" data-name="Rectangle 5757"/></g></g><g data-name="Group 5036"><g data-name="Group 3261"><path d="m261.974 461.79.689-.69 2.91 2.91-.689.69-2.91-2.91z" fill="#82878d" fill-rule="evenodd" data-name="Rectangle 5740"/><path d="m236.796 476.13.94-.252 1.019 3.91-.94.25-1.02-3.909Z" fill="#82878d" fill-rule="evenodd" data-name="Path 2337"/><path d="m276.809 436.855.25-.941 3.853 1.027-.251.94-3.852-1.026z" fill="#82878d" fill-rule="evenodd" data-name="Rectangle 5741"/><g data-name="Group 3174"><path d="m265.956 457.488.613-.757 3.175 2.57-.613.758-3.175-2.571z" fill="#82878d" fill-rule="evenodd" data-name="Rectangle 5742"/><path d="m269.444 452.773.53-.817 3.427 2.227-.53.817-3.427-2.227z" fill="#82878d" fill-rule="evenodd" data-name="Rectangle 5743"/><path d="m272.42 447.72.442-.867 3.64 1.856-.442.868-3.64-1.856z" fill="#82878d" fill-rule="evenodd" data-name="Rectangle 5744"/><path d="m274.851 442.385.35-.91 3.814 1.467-.35.909-3.814-1.466z" fill="#82878d" fill-rule="evenodd" data-name="Rectangle 5745"/></g><g data-name="Group 3175"><path d="m257.605 465.694.757-.612 2.569 3.177-.757.612-2.569-3.177z" fill="#82878d" fill-rule="evenodd" data-name="Rectangle 5746"/><path d="m252.829 469.103.817-.532 2.228 3.425-.817.532-2.228-3.425z" fill="#82878d" fill-rule="evenodd" data-name="Rectangle 5747"/><path d="m247.726 471.989.868-.443 1.856 3.64-.868.443-1.856-3.64z" fill="#82878d" fill-rule="evenodd" data-name="Rectangle 5748"/><path d="m242.348 474.328.91-.35 1.466 3.814-.91.35-1.466-3.814z" fill="#82878d" fill-rule="evenodd" data-name="Rectangle 5749"/></g><g data-name="Group 3176"><path d="m277.888 431.638.161-.96 4.029.678-.162.96-4.028-.678z" fill="#82878d" fill-rule="evenodd" data-name="Rectangle 5750"/><path d="m278.607 425.818.061-.972 4.079.254-.06.973-4.08-.255z" fill="#82878d" fill-rule="evenodd" data-name="Rectangle 5751"/><path d="m278.674 418.983 4.082-.173.042.972-4.082.173-.042-.972z" fill="#82878d" fill-rule="evenodd" data-name="Rectangle 5752"/><path d="m278.068 413.15 4.042-.598.142.964-4.042.597-.142-.963z" fill="#82878d" fill-rule="evenodd" data-name="Rectangle 5753"/></g><g data-name="Group 3177"><path d="m212.27 481.045.676-4.03.96.16-.676 4.03-.96-.16z" fill="#82878d" fill-rule="evenodd" data-name="Rectangle 5754"/><path d="m218.514 481.813.253-4.078.972.06-.253 4.079-.972-.06z" fill="#82878d" fill-rule="evenodd" data-name="Rectangle 5755"/><path d="m224.63 477.843.972-.042.174 4.082-.972.042-.175-4.082z" fill="#82878d" fill-rule="evenodd" data-name="Rectangle 5756"/><path d="m230.471 477.338.964-.143.599 4.041-.964.143-.599-4.041z" fill="#82878d" fill-rule="evenodd" data-name="Rectangle 5757"/></g></g><path d="M288.513 409.154a66.917 66.917 0 0 1 0 25.666c-7.087 36.274-42.239 59.934-78.513 52.847" stroke-linejoin="round" stroke-linecap="round" stroke-width="8" stroke="#dfe2e1" fill="transparent" data-name="Path 2327"/></g><g data-name="Group 5037"><path d="M275.73 463.003c-14.787 19.228-39.975 29.696-65.73 24.664" stroke-linejoin="round" stroke-linecap="round" stroke-width="5" stroke="#fec600" fill="transparent" data-name="Path 2327"/></g><g data-name="Rectangle 6408"><path d="m273.355 456.617 9.01 6.31a1.5 1.5 0 0 1 .37 2.089 1.5 1.5 0 0 1-2.09.368l-9.01-6.31a1.5 1.5 0 0 1-.369-2.088 1.5 1.5 0 0 1 2.09-.369z" fill="#ffc700" fill-rule="evenodd"/><path d="M1.5 0h11A1.5 1.5 0 0 1 14 1.5h0A1.5 1.5 0 0 1 12.5 3h-11A1.5 1.5 0 0 1 0 1.5h0A1.5 1.5 0 0 1 1.5 0z" stroke-linejoin="round" stroke-linecap="round" stroke="#ffc700" fill="transparent" transform="rotate(35 -585.63 658.875) scale(1.07143 1.33333)"/></g></g></svg>