<svg xmlns="http://www.w3.org/2000/svg" width="24" height="23.991" viewBox="44 4.363 24 23.991"><g data-name="Icon Prizes Inactive"><g data-name="privacy"><path d="M62.75 28.354h-13.5a2.253 2.253 0 0 1-2.25-2.25v-8.25h-1.75a1.252 1.252 0 0 1-.883-2.138l11.102-11.14a.772.772 0 0 1 1.063 0l11.1 11.14a1.252 1.252 0 0 1-.882 2.139H65v8.25c0 1.24-1.009 2.25-2.25 2.25Zm-16.901-12h1.901a.75.75 0 0 1 .75.75v9c0 .413.336.75.75.75h13.5a.75.75 0 0 0 .75-.75v-9a.75.75 0 0 1 .75-.75h1.901L56 6.167 45.849 16.354Zm20.718.417h.01Z" fill="#102654" fill-rule="evenodd" data-name="Path 3081"/><path d="M58.25 28.354h-4.5c-.965 0-1.75-.785-1.75-1.75v-6.5c0-.965.785-1.75 1.75-1.75h4.5c.965 0 1.75.785 1.75 1.75v6.5c0 .965-.785 1.75-1.75 1.75Zm-4.5-8.5a.25.25 0 0 0-.25.25v6.5c0 .138.112.25.25.25h4.5a.25.25 0 0 0 .25-.25v-6.5a.25.25 0 0 0-.25-.25h-4.5Z" fill="#102654" fill-rule="evenodd" data-name="Path 3082"/></g></g></svg>