<svg xmlns="http://www.w3.org/2000/svg" width="23.901" height="22.566" viewBox="175.159 29 23.901 22.566"><g data-name="Icon Cart Inactive"><path d="M184.04 45.493a3.04 3.04 0 0 0-3.037 3.036 3.04 3.04 0 0 0 3.037 3.037 3.04 3.04 0 0 0 3.037-3.037 3.04 3.04 0 0 0-3.037-3.036Zm1.512 3.036c0 .834-.678 1.513-1.512 1.513a1.512 1.512 0 1 1 1.512-1.513Z" fill="#464646" fill-rule="evenodd" data-name="Path 2272"/><path d="M198.912 34.106a.763.763 0 0 0-.608-.308h-17.882l-.332-1.86a3.34 3.34 0 0 0-2.698-2.691l-1.335-.235a.765.765 0 0 0-.267 1.505l1.341.236a1.806 1.806 0 0 1 1.458 1.458l1.813 10.228a2.801 2.801 0 0 0 2.764 2.324h10.767a2.824 2.824 0 0 0 2.687-1.997l2.41-7.985a.789.789 0 0 0-.118-.675Zm-1.636 1.214-2.113 6.995c-.16.539-.663.913-1.225.913H183.17a1.275 1.275 0 0 1-1.26-1.064l-1.215-6.844h16.581Z" fill="#464646" fill-rule="evenodd" data-name="Path 2273"/><path d="M193.871 45.493a3.04 3.04 0 0 0-3.037 3.036 3.04 3.04 0 0 0 3.037 3.037 3.04 3.04 0 0 0 3.037-3.037 3.04 3.04 0 0 0-3.037-3.036Zm1.512 3.036c0 .834-.678 1.513-1.512 1.513a1.512 1.512 0 1 1 1.512-1.513Z" fill="#464646" fill-rule="evenodd" data-name="Path 2274"/></g></svg>