<svg xmlns="http://www.w3.org/2000/svg" width="25" height="25" viewBox="309.446 27.642 18.049 21.528"><g data-name="Icon Account Inactive"><path d="M318.271 38.269h.137a5.17 5.17 0 0 0 3.69-1.556 5.163 5.163 0 0 0 1.553-3.755 5.168 5.168 0 0 0-1.556-3.762 5.322 5.322 0 0 0-7.512-.003 5.174 5.174 0 0 0-1.56 3.756 5.166 5.166 0 0 0 1.554 3.759 5.171 5.171 0 0 0 3.694 1.56Zm-2.466-7.847a3.584 3.584 0 0 1 4.991-.071l.001.144h.147c.64.65.993 1.54.976 2.464a3.423 3.423 0 0 1-1.055 2.527 3.585 3.585 0 0 1-4.992.073l-.077-.077a3.421 3.421 0 0 1-1.046-2.533 3.419 3.419 0 0 1 1.051-2.523l.004-.004Z" fill="#464646" fill-rule="evenodd" data-name="Path 2270"/><path d="M327.448 44.042v-.002a12.782 12.782 0 0 0-.173-1.354 10.924 10.924 0 0 0-.338-1.368 6.846 6.846 0 0 0-.569-1.292 4.968 4.968 0 0 0-.875-1.14 3.88 3.88 0 0 0-1.27-.797c-.515-.198-1.044-.278-1.634-.29a1.75 1.75 0 0 0-.934.388c-.246.16-.534.346-.848.547a4.66 4.66 0 0 1-1.059.467 4.039 4.039 0 0 1-2.564-.002 4.608 4.608 0 0 1-1.049-.462c-.272-.17-.523-.334-.744-.478l-.086-.054a1.794 1.794 0 0 0-.98-.407 4.259 4.259 0 0 0-1.61.29 3.879 3.879 0 0 0-1.275.802 4.944 4.944 0 0 0-.87 1.134 6.91 6.91 0 0 0-.572 1.295c-.14.445-.252.906-.333 1.367-.082.445-.14.902-.173 1.356-.028.399-.043.823-.043 1.249a3.756 3.756 0 0 0 1.117 2.836 3.96 3.96 0 0 0 2.842 1.04h10.114a3.99 3.99 0 0 0 2.858-1.047 3.738 3.738 0 0 0 1.111-2.82c0-.43-.015-.852-.043-1.258Zm-13.283-4.516c.041.024.097.058.17.106.254.166.546.353.875.564a6.35 6.35 0 0 0 1.444.646 5.756 5.756 0 0 0 3.623.002 6.376 6.376 0 0 0 1.455-.652c.331-.212.616-.394.87-.56.073-.048.128-.082.17-.106.28.01.555.069.82.169.262.1.502.249.703.436.224.22.414.47.567.747.175.306.318.63.425.964.118.372.212.758.28 1.147.07.38.12.777.151 1.173.025.366.038.749.04 1.155a2.039 2.039 0 0 1-.576 1.552 2.232 2.232 0 0 1-1.649.566h-10.139a2.238 2.238 0 0 1-1.63-.561 2.037 2.037 0 0 1-.582-1.573c0-.39.012-.772.038-1.138.03-.397.081-.793.151-1.176.067-.387.161-.773.28-1.144.106-.331.248-.656.426-.968.151-.273.341-.523.56-.738.207-.193.446-.341.711-.442.262-.1.537-.158.817-.17Z" fill="#464646" fill-rule="evenodd" data-name="Path 2271"/></g></svg>