<svg xmlns="http://www.w3.org/2000/svg" width="22.337" height="19.084" viewBox="-0.2 -0.2 22.337 19.084"><g data-name="Path 3080"><path d="M20.707 1.875C19.605.665 18.077 0 16.403 0c-2.353 0-3.843 1.36-4.679 2.5a8.24 8.24 0 0 0-.556.872 8.233 8.233 0 0 0-.556-.872C9.777 1.36 8.287 0 5.933 0 4.26 0 2.731.666 1.63 1.875.579 3.028 0 4.573 0 6.224c0 1.797.726 3.47 2.284 5.261 1.392 1.602 3.395 3.253 5.715 5.164.864.713 1.758 1.45 2.71 2.255l.028.024a.666.666 0 0 0 .862 0l.029-.024c.952-.806 1.845-1.542 2.71-2.255 2.32-1.911 4.323-3.562 5.715-5.164 1.558-1.792 2.284-3.464 2.284-5.261 0-1.651-.58-3.196-1.63-4.35Zm-7.218 13.81c-.745.615-1.512 1.247-2.32 1.927-.81-.68-1.576-1.312-2.321-1.926-4.54-3.741-7.54-6.213-7.54-9.462 0-1.343.463-2.59 1.304-3.512.85-.933 2.029-1.446 3.321-1.446 1.794 0 2.954 1.069 3.611 1.966.59.804.897 1.615 1.002 1.926.088.26.339.437.622.437a.653.653 0 0 0 .622-.437 7.405 7.405 0 0 1 1.002-1.926c.657-.897 1.817-1.966 3.611-1.966 1.293 0 2.472.513 3.322 1.446.84.922 1.303 2.169 1.303 3.512 0 3.249-3 5.72-7.54 9.462Z" fill="#464646" fill-rule="evenodd"/><path d="M20.707 1.875C19.605.665 18.077 0 16.403 0c-2.353 0-3.843 1.36-4.679 2.5a8.24 8.24 0 0 0-.556.872 8.233 8.233 0 0 0-.556-.872C9.777 1.36 8.287 0 5.933 0 4.26 0 2.731.666 1.63 1.875.579 3.028 0 4.573 0 6.224c0 1.797.726 3.47 2.284 5.261 1.392 1.602 3.395 3.253 5.715 5.164.864.713 1.758 1.45 2.71 2.255l.028.024a.666.666 0 0 0 .862 0l.029-.024c.952-.806 1.845-1.542 2.71-2.255 2.32-1.911 4.323-3.562 5.715-5.164 1.558-1.792 2.284-3.464 2.284-5.261 0-1.651-.58-3.196-1.63-4.35Zm-7.218 13.81c-.745.615-1.512 1.247-2.32 1.927-.81-.68-1.576-1.312-2.321-1.926-4.54-3.741-7.54-6.213-7.54-9.462 0-1.343.463-2.59 1.304-3.512.85-.933 2.029-1.446 3.321-1.446 1.794 0 2.954 1.069 3.611 1.966.59.804.897 1.615 1.002 1.926.088.26.339.437.622.437a.653.653 0 0 0 .622-.437 7.405 7.405 0 0 1 1.002-1.926c.657-.897 1.817-1.966 3.611-1.966 1.293 0 2.472.513 3.322 1.446.84.922 1.303 2.169 1.303 3.512 0 3.249-3 5.72-7.54 9.462Z" stroke-linejoin="round" stroke-linecap="round" stroke-width=".4" stroke="#464646" fill="transparent"/></g></svg>