<svg xmlns="http://www.w3.org/2000/svg" width="17.391" height="18.973" viewBox="277.971 724.514 17.391 18.973"><g data-name="share"><path d="M294.77 727.676a2.57 2.57 0 1 1-5.139 0 2.57 2.57 0 0 1 5.138 0Zm0 0" fill="#464646" fill-rule="evenodd" data-name="Path 2344"/><path d="M292.2 730.838a3.165 3.165 0 0 1-3.162-3.162 3.165 3.165 0 0 1 3.162-3.162 3.165 3.165 0 0 1 3.162 3.162 3.165 3.165 0 0 1-3.162 3.162Zm0-5.139c-1.09 0-1.976.887-1.976 1.977s.886 1.976 1.976 1.976c1.09 0 1.976-.887 1.976-1.976 0-1.09-.886-1.977-1.976-1.977Zm0 0" fill="#464646" fill-rule="evenodd" data-name="Path 2345"/><path d="M294.77 740.324a2.57 2.57 0 1 1-5.139 0 2.57 2.57 0 0 1 5.138 0Zm0 0" fill="#464646" fill-rule="evenodd" data-name="Path 2346"/><path d="M292.2 743.486a3.165 3.165 0 0 1-3.162-3.162 3.165 3.165 0 0 1 3.162-3.162 3.165 3.165 0 0 1 3.162 3.162 3.165 3.165 0 0 1-3.162 3.162Zm0-5.138c-1.09 0-1.976.887-1.976 1.976 0 1.09.886 1.977 1.976 1.977 1.09 0 1.976-.888 1.976-1.977 0-1.09-.886-1.976-1.976-1.976Zm0 0" fill="#464646" fill-rule="evenodd" data-name="Path 2347"/><path d="M283.702 734a2.57 2.57 0 1 1-5.138 0 2.57 2.57 0 0 1 5.138 0Zm0 0" fill="#464646" fill-rule="evenodd" data-name="Path 2348"/><path d="M281.133 737.162A3.165 3.165 0 0 1 277.97 734a3.165 3.165 0 0 1 3.162-3.162 3.165 3.165 0 0 1 3.162 3.162 3.165 3.165 0 0 1-3.162 3.162Zm0-5.138c-1.09 0-1.977.887-1.977 1.976 0 1.09.887 1.976 1.977 1.976s1.976-.887 1.976-1.976c0-1.09-.886-1.976-1.976-1.976Zm0 0" fill="#464646" fill-rule="evenodd" data-name="Path 2349"/><path d="M283 733.62a.79.79 0 0 1-.393-1.477l7.335-4.182a.79.79 0 0 1 1.079.296.792.792 0 0 1-.296 1.078l-7.335 4.182a.785.785 0 0 1-.39.104Zm0 0" fill="#464646" fill-rule="evenodd" data-name="Path 2350"/><path d="M290.334 740.142a.786.786 0 0 1-.39-.103l-7.336-4.182a.792.792 0 0 1 .783-1.374l7.335 4.182a.792.792 0 0 1-.392 1.477Zm0 0" fill="#464646" fill-rule="evenodd" data-name="Path 2351"/></g></svg>