<svg xmlns="http://www.w3.org/2000/svg" width="25.866" height="22.243"><g data-name="ticket"><g data-name="Path 2411"><path d="m17.692 7.571.604-.604.603.604-.604.604-.603-.604Zm0 0" fill="#464646" fill-rule="evenodd"/><path d="m17.692 7.571.604-.604.603.604-.604.604-.603-.604Zm0 0" stroke-linejoin="round" stroke-linecap="round" stroke-width=".5" stroke="#464646" fill="transparent"/></g><g data-name="Path 2412"><path d="m16.483 6.363.604-.604.604.604-.604.604-.604-.604Zm0 0" fill="#464646" fill-rule="evenodd"/><path d="m16.483 6.363.604-.604.604.604-.604.604-.604-.604Zm0 0" stroke-linejoin="round" stroke-linecap="round" stroke-width=".5" stroke="#464646" fill="transparent"/></g><g data-name="Path 2413"><path d="m15.275 5.155.605-.603.603.603-.603.604-.605-.604Zm0 0" fill="#464646" fill-rule="evenodd"/><path d="m15.275 5.155.605-.603.603.603-.603.604-.605-.604Zm0 0" stroke-linejoin="round" stroke-linecap="round" stroke-width=".5" stroke="#464646" fill="transparent"/></g><g data-name="Path 2414"><path d="m20.107 9.987.605-.604.603.604-.603.604-.605-.604Zm0 0" fill="#464646" fill-rule="evenodd"/><path d="m20.107 9.987.605-.604.603.604-.603.604-.605-.604Zm0 0" stroke-linejoin="round" stroke-linecap="round" stroke-width=".5" stroke="#464646" fill="transparent"/></g><g data-name="Path 2415"><path d="m18.9 8.779.603-.604.604.604-.603.604-.605-.604Zm0 0" fill="#464646" fill-rule="evenodd"/><path d="m18.9 8.779.603-.604.604.604-.603.604-.605-.604Zm0 0" stroke-linejoin="round" stroke-linecap="round" stroke-width=".5" stroke="#464646" fill="transparent"/></g><g data-name="Path 2416"><path d="M13.844 15.612a.427.427 0 0 1-.38-.233l-.771-1.513-1.677.265a.427.427 0 0 1-.369-.726l1.2-1.2-.768-1.513a.427.427 0 0 1 .574-.574l1.513.768 1.2-1.2a.427.427 0 0 1 .727.368l-.272 1.681 1.513.772a.427.427 0 0 1-.128.802l-1.677.265-.263 1.677a.427.427 0 0 1-.422.36Zm-.911-2.645c.16 0 .307.09.38.233l.315.618.109-.683a.427.427 0 0 1 .355-.355l.683-.109-.618-.315a.427.427 0 0 1-.228-.447l.108-.685-.488.49a.427.427 0 0 1-.496.078l-.619-.315.316.618a.427.427 0 0 1-.079.496l-.49.491.685-.108a.402.402 0 0 1 .067-.007Zm0 0" fill="#464646" fill-rule="evenodd"/><path d="M13.844 15.612a.427.427 0 0 1-.38-.233l-.771-1.513-1.677.265a.427.427 0 0 1-.369-.726l1.2-1.2-.768-1.513a.427.427 0 0 1 .574-.574l1.513.768 1.2-1.2a.427.427 0 0 1 .727.368l-.272 1.681 1.513.772a.427.427 0 0 1-.128.802l-1.677.265-.263 1.677a.427.427 0 0 1-.422.36Zm-.911-2.645c.16 0 .307.09.38.233l.315.618.109-.683a.427.427 0 0 1 .355-.355l.683-.109-.618-.315a.427.427 0 0 1-.228-.447l.108-.685-.488.49a.427.427 0 0 1-.496.078l-.619-.315.316.618a.427.427 0 0 1-.079.496l-.49.491.685-.108a.402.402 0 0 1 .067-.007Zm0 0" stroke-linejoin="round" stroke-linecap="round" stroke-width=".5" stroke="#464646" fill="transparent"/></g><g data-name="Path 2417"><path d="M25.491 6.415 23.377 4.3l-.302.302a1.282 1.282 0 1 1-1.811-1.812l.301-.302L19.451.375c-.5-.5-1.311-.5-1.812 0l-1.51 1.51-.905-.906c-.5-.5-1.312-.5-1.812 0L.375 14.016c-.5.5-.5 1.312 0 1.812l2.114 2.114.302-.302a1.312 1.312 0 0 1 1.812 0c.5.5.5 1.312 0 1.812l-.302.302 2.114 2.114c.5.5 1.312.5 1.812 0l1.51-1.51.906.906c.5.5 1.311.5 1.811 0L25.491 8.227c.5-.5.5-1.312 0-1.812ZM7.623 21.264a.426.426 0 0 1-.605 0l-1.54-1.54a2.136 2.136 0 0 0-2.96-2.96l-1.54-1.54a.427.427 0 0 1 0-.604L14.017 1.583a.427.427 0 0 1 .604 0l.906.906L4.603 13.412c-.5.5-.5 1.312 0 1.812l2.113 2.114.302-.302a1.281 1.281 0 1 1 1.812 1.812l-.302.302.604.604-1.51 1.51Zm17.264-13.64L11.85 20.66a.427.427 0 0 1-.604 0l-1.54-1.54a2.135 2.135 0 0 0-2.959-2.96l-1.54-1.54a.427.427 0 0 1 0-.604L18.243.98a.428.428 0 0 1 .605 0l1.54 1.538a2.135 2.135 0 0 0 2.959 2.96l1.54 1.54a.427.427 0 0 1 0 .604Zm0 0" fill="#464646" fill-rule="evenodd"/><path d="M25.491 6.415 23.377 4.3l-.302.302a1.282 1.282 0 1 1-1.811-1.812l.301-.302L19.451.375c-.5-.5-1.311-.5-1.812 0l-1.51 1.51-.905-.906c-.5-.5-1.312-.5-1.812 0L.375 14.016c-.5.5-.5 1.312 0 1.812l2.114 2.114.302-.302a1.312 1.312 0 0 1 1.812 0c.5.5.5 1.312 0 1.812l-.302.302 2.114 2.114c.5.5 1.312.5 1.812 0l1.51-1.51.906.906c.5.5 1.311.5 1.811 0L25.491 8.227c.5-.5.5-1.312 0-1.812ZM7.623 21.264a.426.426 0 0 1-.605 0l-1.54-1.54a2.136 2.136 0 0 0-2.96-2.96l-1.54-1.54a.427.427 0 0 1 0-.604L14.017 1.583a.427.427 0 0 1 .604 0l.906.906L4.603 13.412c-.5.5-.5 1.312 0 1.812l2.113 2.114.302-.302a1.281 1.281 0 1 1 1.812 1.812l-.302.302.604.604-1.51 1.51Zm17.264-13.64L11.85 20.66a.427.427 0 0 1-.604 0l-1.54-1.54a2.135 2.135 0 0 0-2.959-2.96l-1.54-1.54a.427.427 0 0 1 0-.604L18.243.98a.428.428 0 0 1 .605 0l1.54 1.538a2.135 2.135 0 0 0 2.959 2.96l1.54 1.54a.427.427 0 0 1 0 .604Zm0 0" stroke-linejoin="round" stroke-linecap="round" stroke-width=".6" stroke="#464646" fill="transparent"/></g></g></svg>